<?xml version="1.0" encoding="UTF-8"?>
<svg id="Layer_2" data-name="Layer 2" xmlns="http://www.w3.org/2000/svg" viewBox="0 0 313.38 46.63">
  <defs>
    <style>
      .cls-1 {
        fill: #7000ff;
      }
    </style>
  </defs>
  <g id="Layer_1-2" data-name="Layer 1">
    <g>
      <g>
        <path class="cls-1" d="M198.52,13.76c-3.48,0-6.11,1.42-7.42,3.56-1.32-2.14-4.2-3.56-7.2-3.56-5.9,0-8.91,3.73-8.91,8.36v11.1h5.51v-10.32c0-2.2,1.17-4.16,3.83-4.16s4.05,1.87,4.05,4.08v10.4h5.53v-10.4c0-2.22,1.3-4.08,3.95-4.08s3.91,1.96,3.91,4.16v10.32h5.51v-11.1c0-4.63-2.84-8.36-8.76-8.36"/>
        <path class="cls-1" d="M231.84,26.52h0V14.13h-5.45l.04,3.01c-1.19-1.77-3.27-3.38-6.97-3.38-6.36,0-9.63,4.94-9.63,9.9-.12,5.02,3.58,10.01,9.36,10.01,3.06,0,5.86-1.36,7.2-3.75,.54,1.58,1.91,3.31,4.75,3.31h3.15v-4.63h-.88c-1.11,0-1.58-.41-1.58-2.08m-11.23,2.37c-3.13,0-5.47-2.16-5.47-5.19s2.34-5.11,5.47-5.11,5.57,2.12,5.57,5.11-2.34,5.19-5.57,5.19"/>
        <path class="cls-1" d="M237.8,20.64v12.58h5.51v-8.44c0-3.27,2.37-5.37,5.39-5.37h3.6v-5.68h-2.7c-3.33,0-5.76,2.84-6.29,4.49v-4.1h-5.51v6.51Z"/>
        <polygon class="cls-1" points="255.56 33.22 261.07 33.22 261.07 23.87 269.63 33.22 276.13 33.22 267.26 23.41 275.45 14.13 268.97 14.13 261.07 23.08 261.07 8.22 255.56 8.22 255.56 33.22"/>
        <path class="cls-1" d="M282.58,25.17c0,2.1,1.09,4.22,4.61,4.22,3.23,0,3.7-1.94,3.7-1.94h6.05s-.56,6.22-9.75,6.22c-6.4,0-10.41-3.58-10.41-9.97s4.01-9.94,10.35-9.94,10.28,3.54,10.28,9.94c0,.7-.12,1.48-.12,1.48h-14.71Zm.08-3.36h8.87c0-1.56-.9-3.77-4.4-3.77s-4.48,2.22-4.48,3.77"/>
        <path class="cls-1" d="M309.98,28.43c-1.89,0-2.57-.84-2.57-3.5v-6.73h5.97v-4.43h-5.97v-3.81h-2.98l-5.31,5.08v3.17h2.78v7.45c0,5.35,2.61,7.6,8.08,7.6h3.41v-4.82h-3.41Z"/>
      </g>
      <path class="cls-1" d="M46.63,23.26c.01,4.61-1.35,9.13-3.9,12.97s-6.19,6.84-10.45,8.61c-4.26,1.77-8.95,2.24-13.47,1.35-4.53-.89-8.69-3.11-11.95-6.37-3.27-3.26-5.49-7.41-6.4-11.94C-.45,23.36,0,18.67,1.77,14.4,3.53,10.14,6.52,6.5,10.35,3.93,14.19,1.37,18.7,0,23.31,0c3.06,0,6.09,.59,8.91,1.76,2.83,1.17,5.4,2.88,7.56,5.04,2.17,2.16,3.88,4.73,5.06,7.55,1.17,2.82,1.78,5.85,1.78,8.91h0ZM25.99,8.08c-.87-.08-1.77-.12-2.68-.12s-1.79,.03-2.66,.12v12.4h5.35V8.08Zm12.33,7.23c-1.95-.64-3.94-1.14-5.96-1.5v10.41c0,7.5-3.19,11.44-9.05,11.44s-9.05-3.94-9.05-11.44V13.81c-2.02,.36-4.01,.86-5.96,1.5v8.97c.13,3.89,1.77,7.59,4.57,10.3,2.8,2.71,6.54,4.22,10.44,4.22s7.64-1.51,10.44-4.22c2.8-2.71,4.44-6.4,4.57-10.3V15.3Z"/>
      <path class="cls-1" d="M121.98,24.04c0,3.02-1.71,4.42-4.25,4.42s-4.19-1.37-4.19-4.42V14.06h-5.48v10.17c0,6.63,5.54,9.22,9.71,9.22s9.72-2.6,9.72-9.22V14.06h-5.48l-.03,9.98Z"/>
      <path class="cls-1" d="M103.42,18.69v-4.63h-17.82v4.63h10.55l-10.97,9.78v4.63h18.91v-4.63h-11.62l10.95-9.78Z"/>
      <path class="cls-1" d="M154.93,13.7c-3.47,0-6.09,1.41-7.39,3.56-1.32-2.15-4.19-3.56-7.17-3.56-5.86,0-8.91,3.73-8.91,8.35v11.06h5.48v-10.28c0-2.21,1.16-4.15,3.82-4.15,.54-.03,1.08,.05,1.59,.24,.51,.19,.97,.49,1.35,.88,.38,.38,.68,.85,.87,1.36,.19,.51,.27,1.05,.24,1.59v10.36h5.48v-10.37c0-2.21,1.3-4.07,3.93-4.07s3.9,1.94,3.9,4.15v10.28h5.48v-11.04c0-4.61-2.83-8.35-8.72-8.35h.05Z"/>
      <path class="cls-1" d="M76.09,24.04c0,3.02-1.71,4.42-4.23,4.42s-4.21-1.37-4.21-4.42V14.06h-5.48v10.17c0,6.63,5.52,9.22,9.71,9.22s9.7-2.6,9.7-9.22V14.06h-5.48v9.98Z"/>
    </g>
  </g>
</svg>